<?xml version="1.0" encoding="utf-8"?>
<!-- Generator: Adobe Illustrator 16.0.4, SVG Export Plug-In . SVG Version: 6.00 Build 0)  -->
<!DOCTYPE svg PUBLIC "-//W3C//DTD SVG 1.1//EN" "http://www.w3.org/Graphics/SVG/1.1/DTD/svg11.dtd">
<svg version="1.1" id="Capa_1" xmlns="http://www.w3.org/2000/svg" xmlns:xlink="http://www.w3.org/1999/xlink" x="0px" y="0px"
	 width="64px" height="64px" viewBox="0 0 64 64" enable-background="new 0 0 64 64" xml:space="preserve">
<g>
	<path fill="#0E0F0F" d="M35.604,26.401c-2.283-2.016-4.785-2.891-7.83-2.774c-0.413,0.016-0.825,0.049-1.235,0.09
		c1.238-0.967,2.666-1.833,3.964-2.64c5.679-1.292,0.663-0.66,1.617-3.397c0.953-2.738,2.803-0.645,2.669-2.388
		c-0.241-0.75-0.921-1.09-3.458-1.878c-1.62-0.503-0.343-3.255-5.478-1.326c0.033-0.998-1.141-2.904-2.525-2.823
		c-1.383,0.081-1.884,2.004-1.944,3.004L18.2,14.516c-0.94,0.761-2.101,2.519-3.463,3.2l0.06,0.066
		c-0.469,0.202-0.918,0.476-1.329,0.819C7.216,23.822,4.032,31.436,3.329,39.42c-0.077,0.873,0.083,1.602,0.402,2.188
		c-0.347,2.033-0.651,4.076-0.94,6.121c-0.069,0.154-0.133,0.312-0.204,0.463c-0.935,2.06-0.58,4.459,1.52,5.67
		c1.816,1.051,4.731,0.543,5.668-1.518c1.307-2.871,2.544-5.781,3.411-8.814c3.011-0.521,5.864-2.075,8.01-4.246
		c2.773-2.809,3.7-6.356,3.373-9.912c2.506-0.322,5.167-0.999,7.237,0.829C34.393,32.483,38.204,28.699,35.604,26.401z"/>
	<circle fill="#0E0F0F" cx="49.389" cy="30.76" r="3.236"/>
	<path fill="#0E0F0F" d="M55.415,37.458c-1.278,0.603-2.535,0.992-4.08,1.396c-0.696-1.256-1.497-2.438-2.369-3.508
		c-0.146-0.283-0.358-0.529-0.614-0.73c-0.025-0.029-0.054-0.063-0.08-0.094c-0.271-0.299-0.646-0.438-1.019-0.429
		c-0.065-0.016-0.135-0.028-0.203-0.04c-0.196-0.068-0.407-0.098-0.628-0.063c-1.783,0.258-3.643,0.786-5.42,1.514
		c-1.236-0.903-2.244-1.712-3.188-2.709c-0.502-0.53-1.34-0.553-1.871-0.05c-0.53,0.502-0.555,1.339-0.053,1.871
		c1.202,1.27,2.479,2.269,4.027,3.376c0.154,0.11,0.329,0.175,0.505,0.21c0.111,0.044,0.228,0.072,0.349,0.086
		c0.219,0.021,0.449-0.014,0.664-0.104c0.603-0.268,1.229-0.498,1.858-0.709c-0.823,1.668-1.669,3.321-2.541,4.965
		c-0.054,0.102-0.093,0.207-0.126,0.312c-1.359,0.933-2.479,2.151-3.669,3.308c-0.505,0.487-0.662,1.084-0.409,1.748
		c0.667,1.746,1.37,3.52,2.615,4.942c1.246,1.426,3.527-0.431,2.277-1.862c-0.851-0.97-1.377-2.144-1.848-3.335
		c0.704-0.727,1.418-1.471,2.219-2.069c0.121,0.072,0.244,0.14,0.371,0.188c0.033,0.016,0.066,0.018,0.101,0.029
		c0.173,1.582,0.624,3.093,1.028,4.648c0.25,0.965,1.117,1.438,2.062,1.092c1.688-0.615,3.376-1.231,5.064-1.852
		c1.779-0.648,0.555-3.324-1.223-2.677c-1.158,0.424-2.318,0.849-3.479,1.271c-0.303-1.061-0.58-2.138-0.604-3.22
		c0-0.085-0.016-0.165-0.029-0.245c0.113-0.15,0.221-0.312,0.312-0.482c0.959-1.801,1.888-3.619,2.782-5.455
		c0.455,0.693,0.883,1.414,1.251,2.147c0.211,0.419,0.612,0.679,1.051,0.724c0.196,0.021,0.396-0.018,0.591-0.09
		c0.004,0,0.006,0.004,0.008,0.004c0.148,0.017,0.305,0.006,0.459-0.035c1.846-0.465,3.398-0.93,4.981-1.672
		c0.661-0.312,0.944-1.103,0.634-1.762C56.865,37.432,56.076,37.148,55.415,37.458z"/>
	<path fill="#0E0F0F" d="M61.375,31.584c0.006-0.003,0.012-0.006,0.018-0.009c0.146-0.073,0.203-0.25,0.131-0.395
		s-0.25-0.205-0.395-0.131l-8.505,4.258L61.375,31.584z"/>
	<path fill="#0E0F0F" d="M62.205,34.395L55.52,36.13l6.811-1.161c0.009-0.003,0.018-0.003,0.023-0.005
		c0.158-0.04,0.25-0.2,0.211-0.358C62.523,34.448,62.361,34.354,62.205,34.395z"/>
	<path fill="#0E0F0F" d="M56.037,30.157c0.095-0.134,0.064-0.318-0.07-0.413c-0.132-0.093-0.314-0.063-0.41,0.07l-1.94,2.726
		l2.39-2.344C56.016,30.184,56.025,30.17,56.037,30.157z"/>
</g>
</svg>
