<?xml version="1.0" encoding="utf-8"?>
<!-- Generator: Adobe Illustrator 16.0.0, SVG Export Plug-In . SVG Version: 6.00 Build 0)  -->
<!DOCTYPE svg PUBLIC "-//W3C//DTD SVG 1.1//EN" "http://www.w3.org/Graphics/SVG/1.1/DTD/svg11.dtd">
<svg version="1.1" id="Layer_1" xmlns="http://www.w3.org/2000/svg" xmlns:xlink="http://www.w3.org/1999/xlink" x="0px" y="0px"
	 width="100px" height="100px" viewBox="0 0 100 100" enable-background="new 0 0 100 100" xml:space="preserve">
<g>
	<path d="M40.077,68.654c-1.306,0-2.591,0.346-3.713,0.998c-0.083,0.049-0.163,0.103-0.238,0.161
		c-2.174,1.373-3.468,3.704-3.468,6.261c0,2.63,1.42,5.088,3.701,6.411c1.131,0.66,2.417,1.009,3.719,1.009
		c4.091,0,7.42-3.328,7.42-7.42c0-1.024-0.209-2.022-0.62-2.96C45.697,70.404,43.028,68.654,40.077,68.654z M40.077,79.494
		c-0.603,0-1.175-0.156-1.707-0.467c-1.057-0.612-1.713-1.744-1.713-2.953c0-1.192,0.62-2.281,1.644-2.903
		c0.06-0.036,0.118-0.075,0.175-0.116c0.494-0.266,1.032-0.4,1.602-0.4c1.359,0,2.588,0.807,3.134,2.061
		c0.19,0.433,0.286,0.891,0.286,1.359C43.497,77.96,41.962,79.494,40.077,79.494z"/>
	<path d="M87.634,43.331c-0.464-0.47-1.125-0.682-1.778-0.565c-1.138,0.205-2.199,0.304-3.246,0.304
		c-10.123,0-18.358-8.234-18.358-18.354c0-1.156,0.117-2.342,0.347-3.526c0.126-0.647-0.075-1.315-0.538-1.785
		c-0.463-0.47-1.129-0.683-1.776-0.565c-8.466,1.513-15.229,7.76-17.533,15.893c-1.957-0.7-4.051-1.074-6.215-1.074
		c-3.215,0-6.392,0.856-9.186,2.477c-1.874,1.086-3.521,2.477-4.908,4.141c-2.076,0.126-4.108,0.739-5.924,1.791
		c-4.149,2.405-6.726,6.867-6.726,11.644c0,4.778,2.578,9.239,6.728,11.642c0.789,0.456,1.639,0.832,2.538,1.124
		c0.921,2.871,2.549,5.483,4.753,7.609c0.795,0.767,2.062,0.744,2.828-0.051s0.744-2.062-0.051-2.828
		c-1.953-1.884-3.327-4.249-3.974-6.84c-0.182-0.728-0.755-1.292-1.485-1.463c-0.949-0.223-1.826-0.563-2.606-1.014
		c-2.918-1.689-4.731-4.824-4.731-8.18s1.813-6.491,4.731-8.183c1.441-0.835,3.076-1.276,4.648-1.278
		c0.036,0.003,0.148,0.01,0.184,0.012c0.652,0.015,1.277-0.278,1.668-0.802c1.182-1.582,2.639-2.882,4.332-3.863
		c2.186-1.268,4.669-1.938,7.18-1.938c2.32,0,4.537,0.55,6.515,1.559c0.057,0.038,0.101,0.089,0.162,0.122
		c2.218,1.178,4.071,2.885,5.399,4.947c0.086,0.134,0.176,0.265,0.258,0.403c0.547,0.917,1.717,1.242,2.66,0.74
		c1.948-1.041,4.366-1.003,6.296,0.11c2.006,1.165,3.252,3.318,3.252,5.622c0,0.67-0.115,1.33-0.317,1.963
		c-0.151,0.473-0.346,0.932-0.603,1.361c-0.321,0.537-0.367,1.181-0.151,1.744c0.072,0.188,0.173,0.367,0.303,0.53
		c0.002,0.003,0.004,0.006,0.006,0.008c0.256,0.323,0.489,0.664,0.699,1.02c0.006,0.009,0.011,0.017,0.016,0.025
		c0.641,1.093,1.06,2.326,1.225,3.628c0.013,0.098,0.037,0.19,0.062,0.283c0.028,0.296,0.046,0.595,0.046,0.896
		c0,3.358-1.813,6.493-4.732,8.184c-1.442,0.836-3.076,1.277-4.725,1.277c-0.393,0-0.799-0.029-1.24-0.091
		c-1.085-0.146-2.104,0.613-2.255,1.708c-0.15,1.094,0.613,2.104,1.708,2.255c0.625,0.086,1.209,0.128,1.787,0.128
		c2.352,0,4.68-0.628,6.729-1.816c4.015-2.324,6.551-6.578,6.712-11.182c9.759-0.928,17.925-8.194,19.826-17.963
		C88.298,44.469,88.097,43.801,87.634,43.331z M67.892,59.109c-0.359-1.331-0.92-2.602-1.684-3.775
		c0.134-0.309,0.25-0.623,0.354-0.942c0.006-0.02,0.016-0.039,0.021-0.06c0.027-0.085,0.044-0.174,0.068-0.26
		c0.274-0.943,0.426-1.922,0.426-2.912c0-3.726-2.01-7.207-5.25-9.087c-2.085-1.203-4.555-1.626-6.906-1.258
		c-0.535,0.084-1.065,0.195-1.582,0.363c-1.368-1.877-3.047-3.441-4.94-4.652c1.47-6.116,5.991-11.035,11.889-13.051
		c-0.024,0.416-0.036,0.83-0.036,1.241c0,12.623,10.542,22.883,23.252,22.335C81.106,53.709,75.01,58.463,67.892,59.109z"/>
</g>
</svg>
