<?xml version="1.0" encoding="utf-8"?>
<!-- Generator: Adobe Illustrator 17.0.0, SVG Export Plug-In . SVG Version: 6.00 Build 0)  -->
<!DOCTYPE svg PUBLIC "-//W3C//DTD SVG 1.1//EN" "http://www.w3.org/Graphics/SVG/1.1/DTD/svg11.dtd">
<svg version="1.1" id="Capa_1" xmlns="http://www.w3.org/2000/svg" xmlns:xlink="http://www.w3.org/1999/xlink" x="0px" y="0px"
	 width="64px" height="64px" viewBox="0 0 64 64" enable-background="new 0 0 64 64" xml:space="preserve">
<g>
	<path d="M31.848,3.686L3.587,28.369c-0.822,0.776-1.097,1.997-0.683,3.039C3.289,32.375,4.207,33,5.244,33H10v28h11V44h6.213
		l0.021,17H53V33h5.459c1.022,0,1.936-0.633,2.325-1.611c0.433-1.087,0.158-2.392-0.73-3.23L31.848,3.686z M49,29v28H31.229
		l-0.021-17H17v17h-3V29H8.943L31.856,8.988L54.923,29H49z"/>
	<path d="M46,29H33v12h13V29z M42,37h-5v-4h5V37z"/>
</g>
</svg>
