<?xml version="1.0" encoding="iso-8859-1"?>
<!-- Generator: Adobe Illustrator 16.0.0, SVG Export Plug-In . SVG Version: 6.00 Build 0)  -->
<!DOCTYPE svg PUBLIC "-//W3C//DTD SVG 1.1//EN" "http://www.w3.org/Graphics/SVG/1.1/DTD/svg11.dtd">
<svg version="1.1" id="Layer_1" xmlns="http://www.w3.org/2000/svg" xmlns:xlink="http://www.w3.org/1999/xlink" x="0px" y="0px"
	 width="32px" height="32px" viewBox="0 0 32 32" style="enable-background:new 0 0 32 32;" xml:space="preserve">
<path style="fill-rule:evenodd;clip-rule:evenodd;fill:#121111;" d="M10.173,18.039c-0.27,0.061-0.791-0.362-0.749,0.278
	c0.038,0.567,0.591,0.431,0.942,0.387c1.388-0.18,2.587,0.102,3.9,0.726c1.292,0.618,2.952,1.172,4.381,0.243
	c1.552-1.009,3.317-1.519,4.99-2.133c1.393-0.515,2.313-1.316,3.155-2.364c0.693-0.861,0.411-1.679-0.526-2.174
	c-0.904-0.477-1.791-1.063-1.412-2.449c-0.822,0.457-1.498,0.644-2.188-0.242c-0.317-0.406-1.132-0.533-1.199,0.471
	c-0.013,0.201-0.002,0.408-0.232,0.464c-1.237,0.29-2.583,0.514-3.735,0.201c-1.172-0.316-1.484,0.186-1.91,0.98
	c-0.619-0.335-1.529-2.063-1.669,0.326c-0.018,0.308-0.984,0.439-1.445,0.821c-0.172,0.142-0.373-0.384-0.33-0.523
	c0.479-1.595-0.917-1.831-1.76-2.401c-0.774-0.523-0.935-0.425-1.369,0.554c-0.183,0.413-0.387,0.09-0.563,0.07
	c-0.445-0.054-0.816,0.099-0.935,0.5c-0.232,0.771-0.948,1.1-1.422,1.641c1.495,1.073,3.156-0.938,4.507,0.297
	c-0.605,1.269-1.825,1.367-3.043,1.476c-0.239,0.021-0.569,0.078-0.539,0.353c0.036,0.331,0.388,0.509,0.67,0.346
	c0.625-0.358,1.261-0.18,1.872-0.092c0.869,0.123,1.214,0.884,1.408,1.598C11.093,17.83,10.556,17.952,10.173,18.039z"/>
</svg>
